<svg xmlns="http://www.w3.org/2000/svg" viewBox="0 0 680 680" width="680" height="680" style="width:100%;height:100%;transform:translate3d(0,0,0);content-visibility:visible">
    <defs>
        <linearGradient id="d" spreadMethod="pad" gradientUnits="userSpaceOnUse" x1="10.025" y1="-59.908" x2="-5.185" y2="11.976">
            <stop offset="0%" stop-color="#9DA8D7" />
            <stop offset="50%" stop-color="#8C97C9" />
            <stop offset="100%" stop-color="#7B87BB" />
        </linearGradient>
        <linearGradient id="e" spreadMethod="pad" gradientUnits="userSpaceOnUse" x1="25.34" y1="-7.869" x2="-5.234" y2="11.439">
            <stop offset="0%" stop-color="#6060FF" />
            <stop offset="50%" stop-color="#3636A5" />
            <stop offset="100%" stop-color="#0C0C4C" />
        </linearGradient>
        <linearGradient id="l" spreadMethod="pad" gradientUnits="userSpaceOnUse" x1="-6.25" y1="1586.239" x2="10.206" y2="1614.036">
            <stop offset="0%" stop-color="#7E5AED" />
            <stop offset="50%" stop-color="#6B46DE" />
            <stop offset="100%" stop-color="#5832CE" />
        </linearGradient>
        <linearGradient id="m" spreadMethod="pad" gradientUnits="userSpaceOnUse" x1="-30.581" y1="-2.382" x2="27.061" y2="2.482">
            <stop offset="0%" stop-color="#1B0855" />
            <stop offset="50%" stop-color="#351F82" />
            <stop offset="100%" stop-color="#4E36AE" />
        </linearGradient>
        <linearGradient id="n" spreadMethod="pad" gradientUnits="userSpaceOnUse" x1="-33.7" y1="-26.152" x2="40.585" y2="26.342">
            <stop offset="0%" stop-color="#7E5AED" />
            <stop offset="50%" stop-color="#6B46DE" />
            <stop offset="100%" stop-color="#5832CE" />
        </linearGradient>
        <linearGradient id="o" spreadMethod="pad" gradientUnits="userSpaceOnUse" x1="-10.387" y1="-26.907" x2="11.572" y2="26.46">
            <stop offset="0%" stop-color="#1B0855" />
            <stop offset="50%" stop-color="#351F82" />
            <stop offset="100%" stop-color="#4E36AE" />
        </linearGradient>
        <linearGradient id="b" spreadMethod="pad" gradientUnits="userSpaceOnUse" x1="4.826" y1="-35.159" x2="-14.927" y2="24.735">
            <stop offset="0%" stop-color="#9DA8D7" />
            <stop offset="50%" stop-color="#8C97C9" />
            <stop offset="100%" stop-color="#7B87BB" />
        </linearGradient>
        <linearGradient id="c" spreadMethod="pad" gradientUnits="userSpaceOnUse" x1="-1.839" y1="1566.25" x2="1.039" y2="1632.496">
            <stop offset="6%" stop-color="#6F7CB1" />
            <stop offset="25%" stop-color="#5E6B9F" />
            <stop offset="45%" stop-color="#4D598C" />
            <stop offset="72%" stop-color="#424C79" />
            <stop offset="100%" stop-color="#363F66" />
        </linearGradient>
        <linearGradient id="g" spreadMethod="pad" gradientUnits="userSpaceOnUse" x1="-1.647" y1="1559.431" x2="1.815" y2="1639.103">
            <stop offset="0%" stop-color="#9DA8D7" />
            <stop offset="50%" stop-color="#8C97C9" />
            <stop offset="100%" stop-color="#7B87BB" />
        </linearGradient>
        <linearGradient id="h" spreadMethod="pad" gradientUnits="userSpaceOnUse" x1="-2.4" y1="1567.25" x2=".415" y2="1632.036">
            <stop offset="6%" stop-color="#6F7CB1" />
            <stop offset="25%" stop-color="#5E6B9F" />
            <stop offset="45%" stop-color="#4D598C" />
            <stop offset="72%" stop-color="#424C79" />
            <stop offset="100%" stop-color="#363F66" />
        </linearGradient>
        <linearGradient id="f" spreadMethod="pad" gradientUnits="userSpaceOnUse" x1="-40.743" y1="-15.138" x2="55.028" y2="12.284">
            <stop offset="0%" stop-color="#1C0877" />
            <stop offset="50%" stop-color="#523CB6" />
            <stop offset="100%" stop-color="#8870F4" />
        </linearGradient>
        <linearGradient id="j" spreadMethod="pad" gradientUnits="userSpaceOnUse" x1="-1.661" y1="-55.233" x2="-26.774" y2="49.562">
            <stop offset="0%" stop-color="#FFF" />
            <stop offset="50%" stop-color="#D7DCEF" />
            <stop offset="100%" stop-color="#AFB8DF" />
        </linearGradient>
        <linearGradient id="k" spreadMethod="pad" gradientUnits="userSpaceOnUse" x1="-2.9" y1="1547.5" x2="1.627" y2="1651.71">
            <stop offset="0%" stop-color="#9DA8D7" />
            <stop offset="50%" stop-color="#8C97C9" />
            <stop offset="100%" stop-color="#7B87BB" />
        </linearGradient>
        <linearGradient id="i" spreadMethod="pad" gradientUnits="userSpaceOnUse" x1="-25.589" y1="32.086" x2="71.392" y2="-13.173">
            <stop offset="0%" stop-color="#1C0877" />
            <stop offset="50%" stop-color="#523CB6" />
            <stop offset="100%" stop-color="#8870F4" />
        </linearGradient>
        <linearGradient id="p" spreadMethod="pad" gradientUnits="userSpaceOnUse" x1="-3.468" y1="-28.22" x2="27.451" y2="17.423">
            <stop offset="0%" stop-color="#FFF" />
            <stop offset="50%" stop-color="#D7DCEF" />
            <stop offset="100%" stop-color="#AFB8DF" />
        </linearGradient>
        <linearGradient id="q" spreadMethod="pad" gradientUnits="userSpaceOnUse" x1="-15.981" y1="-27.911" x2="-10.098" y2="39.634">
            <stop offset="0%" stop-color="#6549E2" />
            <stop offset="50%" stop-color="#3B2796" />
            <stop offset="100%" stop-color="#12044B" />
        </linearGradient>
        <linearGradient id="r" spreadMethod="pad" gradientUnits="userSpaceOnUse" x1=".351" y1="1569.539" x2="-.648" y2="1629.127">
            <stop offset="0%" stop-color="#31307A" />
            <stop offset="50%" stop-color="#43418F" />
            <stop offset="100%" stop-color="#5452A4" />
        </linearGradient>
        <linearGradient id="s" spreadMethod="pad" gradientUnits="userSpaceOnUse" x1="3.912" y1="-13.477" x2=".123" y2="18.273">
            <stop offset="0%" stop-color="#1E1EBB" />
            <stop offset="50%" stop-color="#151584" />
            <stop offset="100%" stop-color="#0C0C4C" />
        </linearGradient>
        <linearGradient id="t" spreadMethod="pad" gradientUnits="userSpaceOnUse" x1="-4.101" y1="-11.727" x2="2.586" y2="11.453">
            <stop offset="0%" stop-color="#FFF" />
            <stop offset="50%" stop-color="#D7DCEF" />
            <stop offset="100%" stop-color="#AFB8DF" />
        </linearGradient>
        <linearGradient id="u" spreadMethod="pad" gradientUnits="userSpaceOnUse" x1="-.604" y1="-30.423" x2="15.662" y2="26.835">
            <stop offset="0%" stop-color="#FFF" />
            <stop offset="50%" stop-color="#D7DCEF" />
            <stop offset="100%" stop-color="#AFB8DF" />
        </linearGradient>
        <linearGradient id="v" spreadMethod="pad" gradientUnits="userSpaceOnUse" x1="-2.696" y1="1569.023" x2="-.009" y2="1630.866">
            <stop offset="0%" stop-color="#9DA8D7" />
            <stop offset="50%" stop-color="#8C97C9" />
            <stop offset="100%" stop-color="#7B87BB" />
        </linearGradient>
        <linearGradient id="w" spreadMethod="pad" gradientUnits="userSpaceOnUse" x1="-2.938" y1="-25.358" x2="1.382" y2="16.419">
            <stop offset="0%" stop-color="#FFF" />
            <stop offset="50%" stop-color="#D7DCEF" />
            <stop offset="100%" stop-color="#AFB8DF" />
        </linearGradient>
        <linearGradient id="x" spreadMethod="pad" gradientUnits="userSpaceOnUse" x1="-12.1" y1="-17.412" x2="16.771" y2="17.431">
            <stop offset="0%" stop-color="#9780FF" />
            <stop offset="31%" stop-color="#694FDC" />
            <stop offset="62%" stop-color="#3A1EB8" />
            <stop offset="81%" stop-color="#250F8B" />
            <stop offset="100%" stop-color="#11005E" />
        </linearGradient>
        <linearGradient id="y" spreadMethod="pad" gradientUnits="userSpaceOnUse" x1="-.688" y1="-19.014" x2="9.721" y2="17.487">
            <stop offset="0%" stop-color="#9780FF" />
            <stop offset="31%" stop-color="#694FDC" />
            <stop offset="62%" stop-color="#3A1EB8" />
            <stop offset="81%" stop-color="#250F8B" />
            <stop offset="100%" stop-color="#11005E" />
        </linearGradient>
        <linearGradient id="z" spreadMethod="pad" gradientUnits="userSpaceOnUse" x1="10.619" y1="-15.127" x2="-5.087" y2="16.324">
            <stop offset="0%" stop-color="#9780FF" />
            <stop offset="31%" stop-color="#694FDC" />
            <stop offset="62%" stop-color="#3A1EB8" />
            <stop offset="81%" stop-color="#250F8B" />
            <stop offset="100%" stop-color="#11005E" />
        </linearGradient>
        <clipPath id="a">
            <path d="M0 0h680v680H0z" />
        </clipPath>
    </defs>
    <g clip-path="url(#a)">
        <g style="display:block">
            <path fill="#EF00FF" d="M333.886 225.16c-14.772 4.393-31.217 13.55-37.4 28.134s-7.108 41.656-6.93 48.01-24.277 59.188-21.818 65.578 57.391 3.36 57.391 3.36l45.036-146.095s-21.507-3.381-36.279 1.013" />
            <path fill="url(#b)" d="M17.047-34.595c-7.7.3-16.8 2.7-21.6 9s-8.6 19.3-9.3 22.4S-32.94 22.473-32.54 25.873s27.387 8.732 27.387 8.732l37.7-62.4s-7.8-7.1-15.5-6.8" transform="rotate(-14.333 1365.432 -1123.623)scale(2)" />
            <path fill="url(#c)" d="M21.061-33.85s-17.9 15.3-18.6 24.7c-2.2 26.5-23.522 39.601-23.522 39.601l11.522 3.399 14.7-14.5z" transform="rotate(-14.333 1363.52 -1090.954)scale(2)" />
        </g>
        <g style="display:block">
            <path fill="#FFF" d="M466.076 147.294s27.807-.476 36.31 25.024c4.058 12.248-2.427 19.573-9.722 27.689-9.725 10.687-21.062 22.356-23.89 41.925-1.963 13.978.802 34.211.802 34.211.36 3.405 3.732 5.844 7.137 5.484 3.406-.56 5.843-3.732 5.483-7.137 0 0-2.588-18.231-.844-30.612 2.193-16.575 12.505-26.056 20.811-35.16 10.537-11.678 18.264-22.589 12.47-40.257-11.602-34.338-48.61-33.769-48.61-33.769-3.4-.04-6.235 2.928-6.277 6.528-.04 3.4 2.928 6.234 6.33 6.074" />
            <path fill="#FFF" d="M466.076 147.294s27.807-.476 36.31 25.024c4.058 12.248-2.427 19.573-9.722 27.689-9.725 10.687-21.062 22.356-23.89 41.925-1.963 13.978.802 34.211.802 34.211.36 3.405 3.732 5.844 7.137 5.484 3.406-.56 5.843-3.732 5.483-7.137 0 0-2.588-18.231-.844-30.612 2.193-16.575 12.505-26.056 20.811-35.16 10.537-11.678 18.264-22.589 12.47-40.257-11.602-34.338-48.61-33.769-48.61-33.769-3.4-.04-6.235 2.928-6.277 6.528-.04 3.4 2.928 6.234 6.33 6.074" />
            <path fill="#DF00EB" d="M462.65 149.454s27.808-.476 36.311 25.025c4.058 12.248-2.428 19.573-9.723 27.688-9.725 10.688-21.061 22.357-23.89 41.925-1.962 13.978.803 34.212.803 34.212.36 3.404 3.732 5.843 7.136 5.483 3.407-.56 5.844-3.732 5.484-7.137 0 0-2.588-18.231-.844-30.611 2.393-16.574 12.504-26.057 20.81-35.16 10.537-11.679 18.265-22.59 12.47-40.258-11.4-34.335-48.41-33.766-48.41-33.766-3.4-.04-6.235 2.928-6.276 6.527-.04 3.4 2.727 6.233 6.13 6.072" />
            <path fill="#313BC8" d="M465.45 149.487s27.808-.477 36.311 25.024c4.058 12.248-2.428 19.573-9.723 27.689-9.725 10.687-21.061 22.356-23.89 41.925-1.962 13.978.802 34.211.802 34.211.36 3.405 3.733 5.844 7.137 5.484 3.407-.56 5.844-3.733 5.483-7.137 0 0-2.587-18.231-.843-30.612 2.193-16.575 12.504-26.056 20.81-35.16 10.537-11.678 18.265-22.589 12.47-40.258-11.401-34.335-48.41-33.765-48.41-33.765-3.4-.04-6.235 2.927-6.277 6.527-.237 3.197 2.73 6.032 6.13 6.072" />
            <path fill="url(#d)" d="M47.45-60.426s-58.7-1.1-62-.4-12.6 16.8-13.3 20.4c-5.5 27.3-2 21.4-6.1 26.7-11 14.2-20.8 32.5-20.8 32.5s47.8 39.3 73 42.2c25.2 3 36.5-74.8 36.5-74.8z" transform="rotate(.667 -29866.073 31924.436)scale(2)" />
            <path fill="#4D598C" d="M453.568 431.367c2.772 2.433 5.728-10.934 4.95-12.943s-45.235-31.528-94.378-36.7-75.844 1.782-75.844 1.782l59.255 11.789c-.003.2 77.126 9.334 106.017 36.072m-75.511-179.891c1.395.417 2.174 2.226 1.753 4.021-.423 1.995-1.837 3.179-3.032 2.765s-2.174-2.226-1.754-4.02c.221-1.798 1.638-3.182 3.033-2.766m3.133-11.364c1.395.416 2.174 2.225 1.753 4.02-.424 1.996-1.837 3.18-3.033 2.766-1.395-.417-2.174-2.226-1.753-4.021.22-1.798 1.637-3.181 3.032-2.765" />
            <path stroke-linecap="round" stroke-linejoin="round" stroke="#4D598C" stroke-width="2.004" d="M354.737 261.605c2.889-7.566 9.474-23.49 12.126-27.86m26.435 31.51c2.888-7.567 9.474-23.492 12.125-27.861m-67.666 22.414 83.697 9.375-12.391 67.86-87.833-14.823z" fill="none" />
            <path stroke-linecap="round" stroke-linejoin="round" stroke="#4D598C" d="m351.056 285.764 42.536 5.696m-48.355 13.038 42.537 5.695" fill="none" stroke-width="2" />
            <path fill="url(#e)" d="M23.843-11.311s2.2 8.7 2.5 17.4c0 0-24 6.9-39.3 5.3s-13.3-4.7-13.3-4.7l1.5-12.6c0-.1 42.8-7.3 48.6-5.4" transform="rotate(.667 -18423.076 35187.824)scale(2)" />
        </g>
        <g style="display:block">
            <path fill="#EF00FF" d="M50.471 569.711 12.085 601.77s-55.752 2.795-65.22 3.356c-9.374.736-33.264 32.704-34.198 34.344s149.538 11.85 149.538 11.85l16.871-36.137 13.684-34.344z" />
            <path fill="#FFF" d="M53.656 574.354 15.27 606.412s-55.752 2.795-65.22 3.355c-9.374.737-35.135 30.078-36.34 31.636-.933 1.64 151.425 17.877 151.425 17.877l17.031-39.631 13.685-34.343z" />
            <path fill="url(#f)" d="m32.469-14.683-24.501 5s-25.2-12-29.5-14c-4.3-1.9-22.6 4.9-23.5 5.3-.8.5 63.3 42.4 63.3 42.4L45.04.95z" transform="rotate(-28.333 1250.421 296.042)scale(2)" />
            <path stroke-linecap="round" stroke-linejoin="round" stroke="#1A106C" stroke-width="2.26" d="M52.866 618.406c4.684-4.798 5.763-13.332 2.279-18.952-3.309-5.714-9.865-6.496-14.55-1.699s-5.762 13.333-2.278 18.952c3.309 5.715 9.865 6.497 14.55 1.699" fill="none" />
            <path fill="#EF00FF" d="M-88.267 641.107c-1.595 6.313-1.954 17.867 10.636 28.575 5.976 5.185 78.665 8.937 78.665 8.937l6.08-3.052 7.887 6.2s32.175 7.418 37.97 3.839c5.891-3.403 15.077-24.716 11.104-31.663-4.149-6.851-27.517-10.157-35.361-12.062-2.886-.717-9.007.993-9.007.993l-5.231-4.223s-78.098-10.833-81.822-9.734c-.352.19-19.313 6.323-20.921 12.19" />
            <path fill="#1A106C" d="M-88.266 641.108c-1.595 6.314-1.956 14.915 10.729 25.799 5.976 5.184 78.665 8.936 78.665 8.936l6.08-3.05 7.887 6.199s32.175 7.418 37.971 3.839c5.89-3.403 15.159-22.034 11.28-28.805-4.148-6.851-27.516-10.157-35.36-12.063-2.886-.716-9.008.994-9.008.994l-5.23-4.223S-63.35 627.901-67.075 629c-.623.109-19.584 6.242-21.192 12.108" />
            <path stroke-linecap="round" stroke-linejoin="round" stroke="#07003F" stroke-width="1.998" d="M-66.49 633.455c.718.067 4.66.214 8.52.631 19.927 1.98 62.708 7.998 70.525 9.01l4.309 3.356c1.193.948 2.452 1.177 3.875.865 0 0 4.7-1.398 6.772-.925 4.687 1.108 14.847 2.674 23.071 5.283 2.439.73 4.796 1.731 6.612 2.57 1.274.677 2.276 1.272 2.656 1.976s.407 1.599.354 2.764c-.216 1.706-.513 3.684-1.257 5.676-1.312 3.888-3.246 7.885-5.48 10.907-1.204 1.559-2.233 3.022-3.29 3.592-.527.285-1.245.217-2.14.245a49 49 0 0 1-6-.173c-9.51-.78-22.122-3.523-25.631-4.13l-7.06-5.51c-1.288-1.123-3.17-1.244-4.755-.39l-5.024 2.482c-5.663-.81-36.142-2.553-56.976-4.953-5.839-.714-10.783-1.457-14.387-2.24-1.26-.23-2.71-.811-3.076-1.069-10.3-8.988-10.601-15.87-9.06-21.018.176-.094.69-.826 1.3-1.382 1.313-.935 2.803-1.966 4.387-2.82 4.848-2.387 10.333-4.435 11.755-4.747" fill="none" />
            <path stroke-linecap="round" stroke-linejoin="round" stroke="#07003F" d="m1.68 670.545 4.047-28.313m20.713 4.282-6.972 29.209M38 678.91l7.624-28.424" fill="none" stroke-width="2" />
        </g>
        <g style="display:block">
            <path fill="#FFF" d="m193.383 412.495-39.278 11.894c-8.621 2.616-25.045 15.895-33.961 27.05s-57.805 68.646-57.805 68.646L33.84 543.468l3.506 30.687 48.918 32.296 34.742-16.721 7.162-22.06s62.234-65.856 64.996-66.356c2.907-.742 77.195-5.687 110.813-14.69s54.366-69.064 27.472-91.918c-26.458-22.758-138.066 17.79-138.066 17.79" />
            <path fill="url(#g)" d="m9.653-38.369-20.5.9c-4.5.2-14.1 4.6-19.8 8.9s-36.5 26.1-36.5 26.1l-16.7 7.8-2.1 15.3 19.7 21.8 17.8-3.5 4.9-11s40.7-23.3 42.2-23.2c1.5 0 38.1 6.8 55.5 6.6s34.534-26.02 24.334-40.42c-10.2-14.5-68.834-9.28-68.834-9.28" transform="rotate(-14.333 2042.983 -524.052)scale(2)" />
            <path stroke-linecap="round" stroke-linejoin="round" stroke="#4D598C" stroke-width="1.4" d="M278.66 431.166s-106.337 7.972-110.11 10.175c-3.82 2.008-80.074 86.516-80.074 86.516l-31.739 25.242-10.015 23.821" fill="none" />
            <path stroke-linecap="round" stroke-linejoin="round" stroke="#4D598C" stroke-width="1.4" d="M287.58 449.116s-106.336 7.972-110.108 10.175c-3.821 2.008-77.841 77.482-77.841 77.482l-31.74 25.243-8.518 22.406" fill="none" />
            <path fill="#EF00FF" d="m183.249 413.227-29.301 8.932c-8.621 2.615-25.045 15.894-33.961 27.049s-57.805 68.647-57.805 68.647l-28.499 23.382 3.506 30.688.243.144 1.014-29.158s27.41-17.945 31.314-22.864 47.049-66.312 58.884-75.735c11.642-9.374 27.98-20.567 43.478-25.352l15.497-4.786z" />
            <path fill="url(#h)" d="m80.6-8.75-12.9-26.5s-15.5 3.6-21.2 7.9-18.6 17.4-21.6 19S6-10.25 3.5-9.45c-2.4.8-41.8 22.5-42.5 24.2-.7 1.6-6.5 10.9-6.5 10.9l-17.8 2.3-17.3-14.4 19.6 21.7 17.8-3.5 4.9-11S2.4-2.55 3.9-2.45c1.3 0 31.2 5.5 49.8 6.4z" transform="rotate(-14.333 2105.342 -489.503)scale(2)" />
        </g>
        <g style="display:block">
            <path fill="url(#i)" d="M12.569-25.275 1.05-5.464s-31.6 4.6-34 5.7-11.3 10.1-13.1 16.6c0 0 7.5 5.6 21.1 9.1 8.4 2.1 60 1.5 63.6-.8 5.6-3.6 5.7-15.9 5.3-17.2-.5-1.3 2.1-27.9 2.1-27.9s-19.381-11.811-33.481-5.311" transform="rotate(-20.332 1995.644 -310.026)scale(2)" />
            <path fill="#F0F" d="m238.066 617.957-5.715 47.996s-56.58 30.35-60.129 34.011c-3.48 3.85-10.872 38.582-10.872 38.582l-1.66-.451.16 6.765 41.868 8.802c-16.38-1.61-31.329-3.962-45.034-6.988l.575-9.385s-1.016-9.648 2.775-21.29c3.603-11.574 8.617-18.764 9.604-19.556s60.643-33.775 60.643-33.775z" />
            <path fill="#FFF" d="m298.887 603.76 15.915 54.463s8.637 18.128 3.603 30.445-5.777 10.886-5.777 10.886l7.41-3.6 1.072 13.254 4.223-2.418s2.402-9.635-.982-18.192c0 0 4.097-11.97-4.256-31.057l-15.429-53.15z" />
            <path stroke-linecap="round" stroke-linejoin="round" stroke="#1A106C" stroke-width="2.212" d="M289.596 669.056c7.175-3.085 11.473-12.783 9.471-21.639-1.814-8.926-9.122-13.683-16.367-10.785-7.175 3.085-11.473 12.783-9.471 21.64 1.814 8.925 9.192 13.87 16.367 10.784" fill="none" />
        </g>
        <g style="display:block">
            <path fill="url(#j)" d="M12.499-57.536c14.1-.7 46.6 11.6 46.7 17.3.2 9.3-13.3 20.7-19.2 25.3-5.9 4.5-38.2 15-47.3 18.1 0 0-4.7 33.1-7.5 39.4l.4 9.4-15.4 5.6-27.2-11-2.2-13.9 5.4-3.8s2.9-26.2 4.8-35.9 15.4-27.8 18.4-31.9c2.2-2.8 38.3-18.4 43.1-18.6" transform="rotate(-5.333 5651.588 -3335.02)scale(2)" />
            <path stroke-linecap="round" stroke-linejoin="round" stroke="#4D598C" stroke-width="1.4" d="M416.494 408.704S396.058 441.546 389.242 446s-83.083 41.702-85.258 48.534c-2.156 7.03-15.29 94.43-15.29 94.43l4.95 25.048" fill="none" />
            <path stroke-linecap="round" stroke-linejoin="round" stroke="#4D598C" stroke-width="1.4" d="M396.333 405.765s-12.677 21.27-19.493 25.724-89.684 52.764-91.84 59.794-15.29 94.43-15.29 94.43l4.95 25.049" fill="none" />
            <path fill="url(#k)" d="m31.7-53.5 6.5 2.2S3.1-35.9-2-26.3c-5.1 9.7-16.1 17-15.9 24.2.2 7.1-4.3 36.1-3.7 37.7.5 1.6 8.9 4.5 8.9 4.5l-8.5-1.3s-.5 10.3.4 11.5c.4.6-3.1 1.9-7.2 3.2l-8-3.2-2.2-13.9 5.4-3.8S-29.9 6.4-28-3.3s15.4-27.8 18.4-31.9c2-2.6 32.6-15.9 41.3-18.3" transform="rotate(-5.333 5592.37 -2880.355)scale(2)" />
            <path fill="#FFF" d="m440.953 414.657 4.017 6.454c.516 18.432-22.947 42.517-33.48 52.339-10.912 10.057-73.281 36.97-90.826 44.835 0 0-3.225 66.588-7.611 79.854l2.544 18.644-7.307 3.494-2.812-2.148 5.89-5.772-2.178-16.87 10.51-78.92s85.742-43.356 90.117-45.974 25.744-31.931 27.799-35.739c1.657-3.77 3.356-19.998 3.337-20.197" />
            <path fill="#FFF" d="m440.953 414.657 4.017 6.454c.516 18.432-22.947 42.517-33.48 52.339-10.912 10.057-73.281 36.97-90.826 44.835 0 0-3.225 66.588-7.611 79.854l2.544 18.644-7.307 3.494-2.812-2.148 5.89-5.772-2.178-16.87 10.51-78.92s85.742-43.356 90.117-45.974 25.744-31.931 27.799-35.739c1.657-3.77 3.356-19.998 3.337-20.197" />
        </g>
        <g style="display:block">
            <path fill="url(#l)" d="m25.4-.85-50.8-6.5 8.3 14.7z" transform="rotate(4.667 -4702.638 4064.828)scale(2)" />
            <path fill="url(#m)" d="m-27.45-4.25 60.8 5.6-5.3 2.9-61.4-4.6z" transform="rotate(4.667 -3526.28 2462.167)scale(2)" />
            <path fill="#391D87" d="m289.54 417.192 77.526-13.136-1.156-5.512-86.052 9.43z" />
            <path fill="url(#n)" d="m-41.8-29.5 22.5 47.3 61.1 11.7-22.3-54.4z" transform="rotate(4.667 -4252.525 2640.28)scale(2)" />
            <path fill="#FFF" d="m179.64 340.195 25.735 4.308 1.636 4.548-26.118-4.54zm2.506 8.632 25.735 4.308 1.636 4.549-26.118-4.54zm1.908 8.583 25.735 4.31 1.635 4.547-26.117-4.54z" />
            <path fill="#EF00FF" d="m122.203 289.152 2.974.444 37.32 98.362-2.94-.842z" />
            <path fill="url(#o)" d="m-8.25-28.7 21.9 55.4-5 2-22.3-54.4z" transform="rotate(4.667 -4307.761 3452.881)scale(2)" />
        </g>
        <g style="display:block">
            <path fill="#3E38D2" d="m463.13 202.255 12.532-12.596-8.794-17.163-7.22 16.151z" />
            <path fill="#FFF" d="M463.57 180.133c9.87 3.429 8.636 15.272 14.897 15.766 9.365.424 31.12-56.034 12.764-96.517-8.216-17.846-37.83-36.573-69.779-33.844-31.755 2.776-30.746 8.784-30.746 8.784l39.606 93.608c.047-.195 23.389 8.774 33.258 12.203" />
            <path fill="#FFF" d="M463.57 180.133c9.87 3.429 8.636 15.272 14.897 15.766 9.365.424 31.12-56.034 12.764-96.517-8.216-17.846-37.83-36.573-69.779-33.844-31.755 2.776-30.746 8.784-30.746 8.784l39.606 93.608c.047-.195 23.389 8.774 33.258 12.203" />
            <path fill="url(#p)" d="M17.178 22.862c5.1.5 6 6.3 9 5.8 4.6-.9 7.6-29-6-46.2-6-7.6-21.6-14.5-36.5-9.4-15 5.1-13.7 7.8-13.7 7.8l29.9 40.1c-.1-.1 12.2 1.3 17.3 1.9" transform="rotate(13.666 -313.051 1899.53)scale(2)" />
            <path fill="#7B87BB" d="M414.52 66.116s33.892 5.36 53.372 54.76c8.038 20.273 10.084 44.03 27.483 34.264 0 0-12.857 59.65-26.789 28.065-13.737-31.539-26.793-77.731-26.793-77.731l-33.755-36.406z" />
            <path fill="#AFB8DF" d="M345.68 190.845s-1.303 1.124-.692 13.005 29.12 24.987 41.064 26.656c29.907 3.979 76.545-15.144 82.52-28.716 1.435-3.356-7.618-30.463-7.618-30.463l-27.85-23.443z" />
            <path fill="#EF00FF" d="M344.99 191.231s-2.493 11.95-.917 15.626c1.623 3.482 5.957 5.976 5.957 5.976s-1.823-4.354-1.834-6.003c-.158-1.89.703-11.355.703-11.355z" />
            <path stroke-linecap="round" stroke-linejoin="round" stroke="#745CC4" d="m358.8 211.467 10.075 5.125" fill="none" stroke-width="2" />
            <path fill="#745CC4" d="m448.723 194.636 4.476 9.527c.394.919 1.366 1.155 2.285.761s1.155-1.366.761-2.285l-4.476-9.527c-.394-.919-1.365-1.155-2.284-.761-.725.441-1.156 1.365-.762 2.285m-5.993 3.482 4.477 9.528c.394.919 1.365 1.155 2.284.76s1.156-1.365.762-2.284l-4.476-9.527c-.394-.92-1.366-1.155-2.285-.761-.725.44-1.155 1.365-.761 2.284m-6.571 4.166 4.476 9.527c.394.92 1.366 1.156 2.285.762s1.156-1.366.762-2.285l-4.476-9.527c-.394-.92-1.366-1.156-2.285-.762-.725.441-.961 1.413-.761 2.285m-13.518 17.502c1.749.425 3.487-.799 3.913-2.548s-.8-3.487-2.548-3.913-3.488.8-3.913 2.548.799 3.488 2.548 3.913m-10.94 3.514c1.749.426 3.487-.798 3.912-2.547s-.798-3.488-2.547-3.913-3.488.799-3.913 2.548.799 3.487 2.548 3.913" />
            <path fill="#DD00EC" d="M337.458 173.962c-9.9-45.63 24.923-99.117 56.037-103.49 41.97-5.85 73.522 72.627 64.847 88.836-11.836 22.439-38.347 48.513-64.325 52.077-25.93 3.369-50.212-8.504-56.56-37.423" />
            <path fill="url(#q)" d="M-25.937 21.798c-10-20.7.4-50.3 14.6-55.9 19.2-7.6 43.3 26.2 41.1 34.9-3.1 12.1-12.6 27.6-24.5 32.3s-24.8 1.8-31.2-11.3" transform="rotate(13.666 -393.206 1744.45)scale(2)" />
            <path fill="#DD00EC" d="M367.978 115.313s-4.211 8.856-7.57 37.06c-2.02 17.622-1.184 34.498 1.27 38.799 1.964 3.77 9.44 19.585 21.136 20.576 17.91 1.68 33.567-7.687 43.461-15.367 14.385-10.91 23.182-23.385 23.182-23.385l.513-18.194-1.217-38.168s-22.566-24.01-42.178-18.694c-19.753 5.9-29.139 2.177-38.597 17.373" />
            <path fill="url(#r)" d="M-23.149-15.461s-.6 4.8 1.1 19c1.1 8.8 3.5 16.9 5.2 18.7 1.4 1.6 6.4 8.4 12.3 7.5 8.9-1.3 15.4-7.7 19.3-12.6 5.7-7 8.5-14.1 8.5-14.1l-1.9-8.9-5.1-18.4s-13.8-9-22.7-4.1c-8.9 5.1-13.9 4.4-16.7 12.9" transform="rotate(13.666 -445.68 1775.512)scale(2)" />
            <path stroke-linecap="round" stroke-linejoin="round" stroke="#FFF" d="m411.11 169.024 30.992-8.107" fill="none" stroke-width="2" />
            <path fill="url(#s)" d="M20.462 13.452s-4.2-1.4-6.7-7.9c-2.5-6.4-2.5-10.3-2.5-10.3s-18.6 22.8-30.4 23.7c0 0-10.3-5.6-4.5-22.1 5.7-16.5 29.1-15.8 29.1-15.8s17.7 3.8 19.6 18-4.6 14.4-4.6 14.4" transform="rotate(13.666 -326.96 1767.635)scale(2)" />
            <path fill="#DD00EC" d="M419.874 91.5s-33.673-8.805-56.87 19.722c-12.61 15.458-2.386 43.673-2.386 43.673s-18.107-24.574 3.236-47.171c24.526-25.528 56.02-16.224 56.02-16.224" />
            <path fill="#BEBCE4" d="M451.356 151.64s-6.12-68.793-62.073-79.928c-.436.1-3.871 1.529-3.871 1.529s.362-4.029 1.281-4.423c4.26-1.434 14.648-7.759 24.564-4.524s55.062 23.267 51.959 91.053z" />
            <path fill="#FFF" fill-opacity=".22" d="M388.946 72.248s27.135 10.302 38.623 24.004c0 0-37.097 1.89-56.712 21.613-22.362 22.556-30.952 51.958-19.946 81.186 0 0-27.876-27.566-7.045-76.84s45.08-49.963 45.08-49.963" />
            <path fill="#FFF" d="M404.832 98.34c-1.235-3.388-14.365-1.023-23.693 4.324-12.951 7.554-15.366 16.64-13.312 19.199s7.536-4.754 18.938-11.862c11.596-7.06 20.142-5.805 18.067-11.661m-41.459 32.525c-1.838.788-3.881-.12-4.669-1.958s.12-3.882 1.959-4.67 3.881.12 4.67 1.959-.121 3.881-1.96 4.67" />
            <path fill="#4C4AA4" d="M446.76 153.61s-6.12-68.793-62.073-79.928c-.436.1-3.87 1.529-3.87 1.529s.361-4.029 1.28-4.423c4.26-1.434 14.648-7.759 24.565-4.524s55.061 23.267 51.958 91.053z" />
            <path fill="#8885E2" d="M449.224 151.945s-6.12-68.793-62.074-79.928c-.436.1-3.87 1.529-3.87 1.529s.361-4.029 1.28-4.423c4.26-1.434 14.648-7.759 24.565-4.524s55.062 23.267 51.958 91.053z" />
            <path fill="#8885E2" d="M457.468 189.146c9.7-.111 17.536-11.173 17.593-24.95s-7.97-24.784-17.624-24.867c-9.701.11-17.536 11.173-17.593 24.95s7.97 24.784 17.624 24.867" />
            <path fill="url(#t)" d="M2.95 12.087c4.7-1.2 7.2-7.5 5.6-14.2s-6.8-11.1-11.5-10c-4.7 1.2-7.2 7.5-5.6 14.2s6.8 11.2 11.5 10" transform="rotate(13.666 -453.785 2009.035)scale(2)" />
            <path stroke-linecap="round" stroke-linejoin="round" stroke="#4A5EB3" d="M461.795 183.2c7.422-.048 13.382-8.478 13.46-18.956s-6.09-18.976-13.51-18.928-13.383 8.478-13.46 18.956c.116 10.526 6.089 18.976 13.51 18.928m7.198-34.681-14.016 30.554" fill="none" stroke-width="2" />
            <path stroke-linecap="round" stroke-linejoin="round" stroke="#FFF" stroke-width="2.006" d="M385.599 162.203c1.58-3.114 20.604-1.782 24.318 2.414s-.797 19.36-14.531 18.285c-13.93-1.123-11.893-16.27-9.787-20.699" fill="none" />
            <path stroke-linecap="round" stroke-linejoin="round" stroke="#FFF" stroke-width="1.994" d="M377.783 161.332c.026-3.492-15.38-7.856-20.31-5.35-4.885 2.312-2.258 18.593 7.212 20.278 12.821 2.295 13.13-9.98 13.098-14.928" fill="none" />
            <path stroke-linecap="round" stroke-linejoin="round" stroke="#FFF" stroke-width="2.006" d="M377.054 168.565s4.506-.757 6.849 1.46" fill="none" />
        </g>
        <g style="display:block">
            <path fill="#FFF" d="M463.937 227.396c20.61-4.692 50.97 35.114 47.89 66.988s-20.926 67.007-31.16 71.078c-10.01 3.9-44.465-48.97-44.465-48.97s-3.492-29.53-1.555-45.413 15.316-40.317 29.29-43.683" />
            <path fill="#FFF" d="M467.73 227.705c19.222-4.88 47.178 34.805 44.098 66.68s-19.936 67.14-29.351 71.119-41.068-48.715-41.068-48.715-3.095-29.476-1.159-45.36c1.712-15.712 14.298-40.252 27.48-43.724" />
            <path fill="url(#u)" d="M-7.468-33.502c9.1-3.7 25.7 14.1 26.3 30.1s-5.3 34.6-9.7 37.2c-4.3 2.6-23.3-21.4-23.3-21.4s-4.6-14.9-4.7-22.9c-.2-7.9 5.2-20.4 11.4-23" transform="rotate(7.667 -1972.177 3651.996)scale(2)" />
            <path fill="url(#v)" d="M9.404-25.277s-3.2-1.9-7-.9c-3.9 1-14.1 16.2-2.5 40.6 0 0 12.3 3.8 15.9 16.2l-26.7-13.8s-6.1-18.1-4.7-25.5c1.5-7.3 5-19.6 13.1-21.7 6.7-1.6 11.9 5.1 11.9 5.1" transform="rotate(7.667 -1915.599 3596.243)scale(2)" />
            <path stroke-linecap="round" stroke-linejoin="round" stroke="#4D598C" stroke-width="1.4" d="M435.897 285.777s20.359 6.171 34.405 8.264m-36.379 6.404s20.358 6.17 34.405 8.264" fill="none" />
            <path stroke-linecap="round" stroke-linejoin="round" stroke="#4D598C" stroke-width="1.4" d="M458.356 229.873s15.125 6.073 14.668 33.456-6.286 69.18-6.286 69.18" fill="none" />
            <path fill="#4D598C" d="M478.212 299.747c1.585.214 3.213-1.384 3.308-3.59.294-2.18-1.079-3.98-2.69-3.995-1.587-.214-3.214 1.383-3.31 3.59-.068 2.01 1.08 3.98 2.692 3.995m-1.022 13.585c1.586.214 3.213-1.383 3.309-3.59.293-2.18-1.08-3.98-2.692-3.995-1.585-.214-3.213 1.384-3.308 3.59-.069 2.01 1.105 3.782 2.69 3.995" />
            <path stroke-linecap="round" stroke-linejoin="round" stroke="#4D598C" stroke-width="1.4" d="M471.404 227.392s18.369 11.958 17.885 39.54c-.458 27.383-9.564 80.04-9.564 80.04" fill="none" />
            <path stroke-linecap="round" stroke-linejoin="round" stroke="#4D598C" stroke-width="1.4" d="M487.257 295.516s16.505 1.818 24.647 1.3m-26 13.25s15.594 1.09 23.736.571" fill="none" />
            <path fill="#4D598C" d="M456.359 231.219s-23.126 29.377-20.092 54.81 13.688 34.736 13.688 34.736l-13.57-2.634s-7.57-33.711-5.123-45.894c2.592-11.759 13.181-34.953 25.097-41.018" />
            <path fill="#2D1C89" d="M480.304 285.7c7.784.645 14.809-5.069 15.427-12.654.644-7.784-5.097-14.61-12.88-15.255s-14.81 5.07-15.427 12.655c-.644 7.784 5.097 14.61 12.88 15.255" />
            <path fill="#FFF" d="m490.07 265.624-15.62-.892-.123 2.405 15.621.892zm-.297 5.207-15.62-.892-.123 2.405 15.62.892zm-.298 5.207-15.62-.892-.122 2.405 15.62.892z" />
            <path fill="url(#w)" d="M4.709-19.342s-23.2-.401-34.8 1.899l2 22s27.2 13.3 38.2 14.7c10.9 1.4 21-10.8 19.9-12.3s3.1-16.8-10.5-21.5c-13.6-4.8-14.8-4.799-14.8-4.799" transform="rotate(7.667 -2457.027 3294.552)scale(2)" />
            <path fill="#FFF" d="M471.434 381.574s-14.096 16.265-40.714 16.113c0 0 14.096 4.722 27.693-3.336s16.047-12.773 16.047-12.773z" />
            <path fill="#FFF" d="M471.434 381.574s-14.096 16.265-40.714 16.113c0 0 14.096 4.722 27.693-3.336s16.047-12.773 16.047-12.773z" />
            <path fill="url(#x)" d="M-14.838-12.149c-.6-.6 1.3-3.5 3.3-3.6s19.3 4.6 24.6 13.8-1.9 17.1-5.2 17.7c0 0 3.3-8.8 0-13.4-8.1-11.2-21.3-13.2-22.7-14.5" transform="rotate(7.667 -2382.744 3594.053)scale(2)" />
            <path fill="#FFF" d="M467.851 330.237s18.666 17.245 16.482 30.472c-1.986 13.253-10.07 20.843-10.07 20.843s13.382-6.473 13.283-22.227c.073-15.529-19.695-29.088-19.695-29.088" />
            <path fill="#FFF" d="M467.851 330.237s18.666 17.245 16.482 30.472c-1.986 13.253-10.07 20.843-10.07 20.843s13.382-6.473 13.283-22.227c.073-15.529-19.695-29.088-19.695-29.088" />
            <path fill="url(#y)" d="M-14.981-14.149s21.8-3.1 23.6-3.2 9.3 4.5 7.9 17.3c-1.4 12.7-5 17.4-5.7 17.4s-22.4-8.4-22.4-8.4-8.7-15.5-3.4-23.1" transform="rotate(7.667 -2355.196 2914.464)scale(2)" />
            <path fill="#1E1A5B" d="M347.65 307.195s9.622.488 13.258 9.453.37 31.733-1.079 37.996c-1.422 6.064 19.554 15.144 23.214 16.444s8.077-1.536 8.077-1.536-3.724 8.176-6.949 8.146c-3.251.167-42.211-22.23-42.528-22.879-.514-.675-1.208-6.015-1.208-6.015-3.602-14.107-6.86-28.133.103-39.741l1.456-1.822z" />
            <path fill="#FFF" d="m387.285 308.09 7.837.249s14.447 9.615 8.07 36-15.93 34.38-17 34.841c-1.045.263-3.778-1.92-3.778-1.92s14.991-13.923 17.21-33.401c3.823-34.398-12.339-35.768-12.339-35.768" />
            <path fill="#FFF" d="m387.285 308.09 7.837.249s14.447 9.615 8.07 36-15.93 34.38-17 34.841c-1.045.263-3.778-1.92-3.778-1.92s14.991-13.923 17.21-33.401c3.823-34.398-12.339-35.768-12.339-35.768" />
        </g>
        <g style="display:block">
            <path fill="#1E1A5B" d="M325.045 306.47s-12.938-5.367-17.733-5.01c-3.97.337-19.097 2.882-19.91 7.414-.263 1.17 4.836 9.492 11.826 7.578s11.78-.427 11.78-.427z" />
            <path fill="url(#z)" d="M13.718-11.448s-8.6-3.1-13.4-2.9-11.9 7.2-13.6 9.4-5.7 10.5-5.2 12.5 6.2 3.8 8 4.4 6 .8 6 .8 2.8 1.4 4.9 1.6 6.1-6.3 7.7-7.2c.9-.5 3.6-.6 6.8-.1 2.7.4 3.7-4.9 3.6-7.3-.1-2.5-1.1-7.9-4.8-11.2" transform="rotate(12.667 -1339.405 1613.896)scale(2)" />
        </g>
    </g>
</svg>